<?xml version="1.0" encoding="UTF-8"?>
<svg xmlns="http://www.w3.org/2000/svg" xmlns:xlink="http://www.w3.org/1999/xlink" width="19pt" height="19pt" viewBox="0 0 19 19" version="1.1">
<g id="surface1">
<path style=" stroke:none;fill-rule:nonzero;fill:rgb(0%,0%,0%);fill-opacity:1;" d="M 18.125 18.527344 L 16.703125 5.300781 C 16.679688 5.085938 16.492188 4.921875 16.277344 4.921875 L 13.652344 4.921875 L 13.652344 4.117188 C 13.652344 1.84375 11.808594 0 9.535156 0 C 7.265625 0 5.417969 1.84375 5.417969 4.117188 L 5.417969 4.921875 L 2.722656 4.921875 C 2.507812 4.921875 2.320312 5.085938 2.296875 5.300781 L 0.875 18.527344 C 0.851562 18.644531 0.898438 18.761719 0.96875 18.859375 C 1.042969 18.953125 1.160156 19 1.277344 19 L 17.722656 19 C 17.839844 19 17.957031 18.953125 18.03125 18.859375 C 18.101562 18.761719 18.148438 18.644531 18.125 18.527344 Z M 13.226562 7.3125 C 13.441406 7.3125 13.605469 7.476562 13.605469 7.691406 C 13.605469 7.902344 13.441406 8.070312 13.226562 8.070312 C 13.015625 8.070312 12.847656 7.902344 12.847656 7.691406 C 12.847656 7.476562 13.015625 7.3125 13.226562 7.3125 Z M 6.269531 4.117188 C 6.269531 2.320312 7.738281 0.851562 9.535156 0.851562 C 11.332031 0.851562 12.800781 2.320312 12.800781 4.117188 L 12.800781 4.921875 L 6.269531 4.921875 Z M 5.84375 7.3125 C 6.058594 7.3125 6.222656 7.476562 6.222656 7.691406 C 6.222656 7.902344 6.058594 8.070312 5.84375 8.070312 C 5.632812 8.070312 5.464844 7.902344 5.464844 7.691406 C 5.464844 7.476562 5.632812 7.3125 5.84375 7.3125 Z M 1.773438 18.125 L 3.101562 5.75 L 5.417969 5.75 L 5.417969 6.53125 C 4.945312 6.695312 4.613281 7.144531 4.613281 7.667969 C 4.613281 8.328125 5.15625 8.871094 5.820312 8.871094 C 6.484375 8.871094 7.027344 8.328125 7.027344 7.667969 C 7.027344 7.144531 6.695312 6.695312 6.222656 6.53125 L 6.222656 5.75 L 12.753906 5.75 L 12.753906 6.53125 C 12.28125 6.695312 11.949219 7.144531 11.949219 7.667969 C 11.949219 8.328125 12.492188 8.871094 13.15625 8.871094 C 13.816406 8.871094 14.363281 8.328125 14.363281 7.667969 C 14.363281 7.144531 14.03125 6.695312 13.558594 6.53125 L 13.558594 5.75 L 15.972656 5.75 L 17.296875 18.125 Z M 1.773438 18.125 "/>
</g>
</svg>
